<svg fill="#000000" width="24" height="24" viewBox="0 0 846.66 846.66" xmlns="http://www.w3.org/2000/svg">
    <path d="M30.88 111.05h784.9c11.4 0 20.64 9.24 20.64 20.64v583.28c0 11.4-9.24 20.64-20.64 20.64H30.88c-11.4
    0-20.64-9.24-20.64-20.64V131.69c0-11.4 9.24-20.64 20.64-20.64zm146.05 288.17c0 27.16-41.29 27.16-41.29 0 0-32.49
    15.12-63.05 40.68-82.92a117.07 117.07 0 01-4.48-7.04c-6.45-11.45-10.12-24.63-10.12-38.63 0-43.57 35.32-78.89
    78.89-78.89s78.89 35.32 78.89 78.89c0 16.39-5.09 32.34-14.61 45.67 25.57 19.87 40.69 50.43 40.69 82.92 0
    27.16-41.29 27.16-41.29 0 0-23.44-12.59-44.7-33.14-55.92a96.73 96.73 0 01-30.54 6.22c-10.41
    0-20.96-2.16-30.55-6.22-20.54 11.22-33.13 32.48-33.13 55.92zm-55.14 91.99h237.63c11.4 0 20.65 9.25 20.65
    20.65v122.41c0 11.4-9.25 20.65-20.65 20.65H121.79c-11.4 0-20.64-9.25-20.64-20.65V511.86c0-11.4 9.24-20.65
    20.64-20.65zm216.99 41.29H143.3v81.13h196.34v-81.13zM241.46 294.2c-20.77 0-37.6 16.83-37.6 37.6 0 21.09 16.9
    37.6 37.6 37.6 20.72 0 37.6-16.69 37.6-37.6 0-20.77-16.84-37.6-37.6-37.6zm183.62 29.12c-27.15 0-27.15-41.29
    0-41.29h300.64c27.15 0 27.15 41.29 0 41.29H425.08zm46.81 363.65c-27.16 0-27.16-41.3 0-41.3h253.83c27.15 0
    27.15 41.3 0 41.3H471.89zm-46.81-272.74c-27.15 0-27.15-41.29 0-41.29h300.64c27.15 0 27.15 41.29 0
    41.29H425.08zm46.81 90.91c-27.16 0-27.16-41.29 0-41.29h253.83c27.15 0 27.15 41.29 0 41.29H471.89zm0 90.92c-27.16
    0-27.16-41.3 0-41.3h253.83c27.15 0 27.15 41.3 0 41.3H471.89zm324.09-382.55H52.38v541.98h743.6V244.33z"/>
</svg>
